# Blender 5.0.1
# www.blender.org
mtllib greenhouse_front.mtl
o front
v -9.002003 0.000005 15.000001
v -8.997043 0.201886 15.000001
v -8.991161 0.441292 15.000001
v -8.958664 0.879895 15.000001
v -8.904591 1.313184 15.000001
v -8.829069 1.738598 15.000001
v -8.732283 2.153709 15.000001
v -8.614466 2.556235 15.000001
v -8.475899 2.944088 15.000001
v -8.316919 3.315403 15.000001
v -8.137907 3.668557 15.000001
v -1.002029 0.441292 15.000001
v -1.002029 0.879895 15.000001
v -1.002029 1.313184 15.000001
v -1.002029 1.738598 15.000001
v -1.002029 2.153709 15.000001
v -1.002029 2.556235 15.000001
v -1.002029 2.556246 15.000001
v -7.939296 4.002190 15.000001
v -7.721562 4.315224 15.000001
v -7.485234 4.607432 15.000001
v -7.230875 4.880646 15.000001
v -6.959101 5.136855 15.000001
v -6.670569 5.377760 15.000001
v -6.365970 5.604742 15.000001
v -6.046041 5.818868 15.000001
v -5.711551 6.020906 15.000001
v -5.363307 6.211328 15.000001
v -5.002147 6.390336 15.000001
v -4.628941 6.557895 15.000001
v -4.244587 6.713769 15.000001
v -3.850014 6.857542 15.000001
v -3.446171 6.988682 15.000001
v -3.034030 7.106561 15.000001
v -2.614585 7.210513 15.000001
v -2.188846 7.299868 15.000001
v -1.757838 7.373979 15.000001
v -1.322601 7.432278 15.000001
v -0.884182 7.474283 15.000001
v -0.443638 7.499634 15.000001
v -0.002031 7.508110 15.000001
v 0.997971 0.441292 15.000001
v 0.997971 0.879895 15.000001
v 0.997971 1.313184 15.000001
v 0.997971 1.738598 15.000001
v 0.997971 2.153709 15.000001
v 0.997971 2.556235 15.000001
v 0.997971 2.556246 15.000001
v 8.997944 0.000004 15.000001
v 8.992984 0.201886 15.000001
v 8.987103 0.441292 15.000001
v 8.954605 0.879894 15.000001
v 8.900534 1.313183 15.000001
v 8.825012 1.738598 15.000001
v 8.728226 2.153709 15.000001
v 8.610407 2.556235 15.000001
v 8.471840 2.944089 15.000001
v 8.312860 3.315405 15.000001
v 8.133850 3.668558 15.000001
v 0.439576 7.499634 15.000001
v 0.880120 7.474283 15.000001
v 1.318539 7.432278 15.000001
v 1.753776 7.373979 15.000001
v 2.184784 7.299869 15.000001
v 2.610523 7.210513 15.000001
v 3.029968 7.106562 15.000001
v 3.442109 6.988683 15.000001
v 3.845952 6.857544 15.000001
v 4.240526 6.713770 15.000001
v 6.666509 5.377761 15.000001
v 6.361910 5.604743 15.000001
v 7.717503 4.315224 15.000001
v 7.481172 4.607433 15.000001
v 7.935236 4.002191 15.000001
v 7.226815 4.880647 15.000001
v 6.955041 5.136856 15.000001
v 4.624880 6.557897 15.000001
v 4.998085 6.390337 15.000001
v 5.359246 6.211329 15.000001
v 6.041980 5.818870 15.000001
v 5.707490 6.020907 15.000001
v -1.002029 0.201886 15.000001
v 0.997971 0.201886 15.000001
v -9.002003 0.000005 15.200001
v -8.997043 0.201886 15.200001
v -8.991161 0.441292 15.200001
v -8.958664 0.879895 15.200001
v -8.904591 1.313184 15.200001
v -8.829069 1.738598 15.200001
v -8.732283 2.153709 15.200001
v -8.614466 2.556235 15.200001
v -8.475899 2.944088 15.200001
v -8.316919 3.315403 15.200001
v -8.137907 3.668557 15.200001
v -1.002029 0.441292 15.200001
v -1.002029 0.879895 15.200001
v -1.002029 1.313184 15.200001
v -1.002029 1.738598 15.200001
v -1.002029 2.153709 15.200001
v -1.002029 2.556235 15.200001
v -1.002029 2.556246 15.200001
v -7.939296 4.002190 15.200001
v -7.721562 4.315224 15.200001
v -7.485234 4.607432 15.200001
v -7.230875 4.880646 15.200001
v -6.959101 5.136855 15.200001
v -6.670569 5.377760 15.200001
v -6.365970 5.604742 15.200001
v -6.046041 5.818868 15.200001
v -5.711551 6.020906 15.200001
v -5.363307 6.211328 15.200001
v -5.002147 6.390336 15.200001
v -4.628941 6.557895 15.200001
v -4.244587 6.713769 15.200001
v -3.850014 6.857542 15.200001
v -3.446171 6.988682 15.200001
v -3.034030 7.106561 15.200001
v -2.614585 7.210513 15.200001
v -2.188846 7.299868 15.200001
v -1.757838 7.373979 15.200001
v -1.322601 7.432278 15.200001
v -0.884182 7.474283 15.200001
v -0.443638 7.499634 15.200001
v -0.002031 7.508110 15.200001
v 0.997971 0.441292 15.200001
v 0.997971 0.879895 15.200001
v 0.997971 1.313184 15.200001
v 0.997971 1.738598 15.200001
v 0.997971 2.153709 15.200001
v 0.997971 2.556235 15.200001
v 0.997971 2.556246 15.200001
v 8.997944 0.000004 15.200001
v 8.992984 0.201886 15.200001
v 8.987103 0.441292 15.200001
v 8.954605 0.879894 15.200001
v 8.900534 1.313183 15.200001
v 8.825012 1.738598 15.200001
v 8.728226 2.153709 15.200001
v 8.610407 2.556235 15.200001
v 8.471840 2.944089 15.200001
v 8.312860 3.315405 15.200001
v 8.133850 3.668558 15.200001
v 0.439576 7.499634 15.200001
v 0.880120 7.474283 15.200001
v 1.318539 7.432278 15.200001
v 1.753776 7.373979 15.200001
v 2.184784 7.299869 15.200001
v 2.610523 7.210513 15.200001
v 3.029968 7.106562 15.200001
v 3.442109 6.988683 15.200001
v 3.845952 6.857544 15.200001
v 4.240526 6.713770 15.200001
v 6.666509 5.377761 15.200001
v 6.361910 5.604743 15.200001
v 7.717503 4.315224 15.200001
v 7.481172 4.607433 15.200001
v 7.935236 4.002191 15.200001
v 7.226815 4.880647 15.200001
v 6.955041 5.136856 15.200001
v 4.624880 6.557897 15.200001
v 4.998085 6.390337 15.200001
v 5.359246 6.211329 15.200001
v 6.041980 5.818870 15.200001
v 5.707490 6.020907 15.200001
v -1.002029 0.201886 15.200001
v 0.997971 0.201886 15.200001
vn -0.0000 -0.0000 -1.0000
vn -0.0000 -0.0000 1.0000
vn -0.8209 0.5710 -0.0000
vn 0.8209 0.5710 -0.0000
vn -0.7775 0.6288 -0.0000
vn 0.7775 0.6288 -0.0000
vn -0.7319 0.6814 -0.0000
vn 0.7319 0.6814 -0.0000
vn -0.6860 0.7276 -0.0000
vn 0.6860 0.7276 -0.0000
vn -0.6409 0.7676 -0.0000
vn 0.6409 0.7676 -0.0000
vn -0.5975 0.8019 -0.0000
vn 0.5975 0.8018 -0.0000
vn -0.5562 0.8310 -0.0000
vn 0.5562 0.8310 -0.0000
vn -0.5170 0.8560 -0.0000
vn 0.5170 0.8560 -0.0000
vn -0.4798 0.8774 -0.0000
vn 0.4798 0.8774 -0.0000
vn -0.4441 0.8960 -0.0000
vn 0.4441 0.8960 -0.0000
vn -0.4096 0.9123 -0.0000
vn 0.4096 0.9123 -0.0000
vn -0.3758 0.9267 -0.0000
vn 0.3758 0.9267 -0.0000
vn -0.3424 0.9396 -0.0000
vn 0.3424 0.9396 -0.0000
vn -0.3089 0.9511 -0.0000
vn 0.3089 0.9511 -0.0000
vn -0.2750 0.9614 -0.0000
vn 0.2750 0.9614 -0.0000
vn -0.2406 0.9706 -0.0000
vn 0.2406 0.9706 -0.0000
vn -0.2054 0.9787 -0.0000
vn 0.2054 0.9787 -0.0000
vn -0.1695 0.9855 -0.0000
vn 0.1695 0.9855 -0.0000
vn -0.8593 0.5115 -0.0000
vn 0.8593 0.5115 -0.0000
vn -0.8920 0.4521 -0.0000
vn 0.8920 0.4521 -0.0000
vn -0.9193 0.3936 -0.0000
vn 0.9193 0.3936 -0.0000
vn 0.9417 0.3364 -0.0000
vn -1.0000 -0.0000 -0.0000
vn -0.0000 -1.0000 -0.0000
vn 1.0000 -0.0000 -0.0000
vn -0.9417 0.3364 -0.0000
vn -0.9597 0.2809 -0.0000
vn 0.9597 0.2809 -0.0000
vn -0.9739 0.2271 -0.0000
vn 0.9739 0.2271 -0.0000
vn -0.9846 0.1748 -0.0000
vn 0.9846 0.1748 -0.0000
vn -0.9923 0.1238 -0.0000
vn 0.9923 0.1238 -0.0000
vn -0.9973 0.0739 -0.0000
vn 0.9973 0.0739 -0.0000
vn -0.9997 0.0246 -0.0000
vn 0.9997 0.0246 -0.0000
vn -0.0954 0.9954 -0.0000
vn -0.0574 0.9983 -0.0000
vn -0.0192 0.9998 -0.0000
vn 0.0192 0.9998 -0.0000
vn 0.0574 0.9983 -0.0000
vn 0.0954 0.9954 -0.0000
vn -0.1328 0.9911 -0.0000
vn 0.1328 0.9911 -0.0000
vn -0.0000 1.0000 -0.0000
vt 0.566458 0.817256
vt 0.561879 0.818477
vt 0.561879 0.905062
vt 0.566458 0.906283
vt 0.557605 0.819802
vt 0.557605 0.903736
vt 0.553609 0.821229
vt 0.553609 0.902310
vt 0.549861 0.822753
vt 0.549861 0.900786
vt 0.546337 0.824371
vt 0.546337 0.899167
vt 0.543017 0.826079
vt 0.543017 0.897459
vt 0.539885 0.827874
vt 0.539885 0.895665
vt 0.536929 0.829749
vt 0.536929 0.893789
vt 0.534144 0.831702
vt 0.534144 0.891836
vt 0.531526 0.833728
vt 0.531526 0.889811
vt 0.529075 0.835821
vt 0.529075 0.887718
vt 0.526795 0.837977
vt 0.526795 0.885562
vt 0.524692 0.840189
vt 0.524692 0.883349
vt 0.522773 0.842454
vt 0.522773 0.881085
vt 0.521049 0.844765
vt 0.521049 0.878773
vt 0.519529 0.847118
vt 0.519529 0.876421
vt 0.518221 0.849505
vt 0.518222 0.874033
vt 0.517137 0.851922
vt 0.517137 0.871616
vt 0.571338 0.816142
vt 0.571338 0.907397
vt 0.576504 0.815138
vt 0.576504 0.908401
vt 0.581936 0.814247
vt 0.581936 0.909292
vt 0.587609 0.910069
vt 0.587609 0.867377
vt 0.587609 0.856161
vt 0.587609 0.813469
vt 0.593497 0.812809
vt 0.593497 0.856161
vt 0.593497 0.910730
vt 0.593497 0.867378
vt 0.599569 0.812266
vt 0.599569 0.856161
vt 0.599569 0.911273
vt 0.599569 0.867378
vt 0.605792 0.811843
vt 0.605792 0.856161
vt 0.605792 0.911696
vt 0.605792 0.867377
vt 0.612129 0.811539
vt 0.612129 0.856161
vt 0.612130 0.912000
vt 0.612129 0.867378
vt 0.618545 0.811357
vt 0.618545 0.856161
vt 0.618545 0.912182
vt 0.618545 0.867377
vt 0.622047 0.811324
vt 0.622047 0.856161
vt 0.516285 0.854363
vt 0.515670 0.856822
vt 0.515299 0.859293
vt 0.515175 0.861769
vt 0.515299 0.864246
vt 0.515670 0.866716
vt 0.516285 0.869175
vt 0.625000 0.811296
vt 0.622047 0.867377
vt 0.622047 0.912215
vt 0.625000 0.912242
s 0
usemtl glass
f 19/1/1 20/2/1 72/3/1 74/4/1
f 20/2/1 21/5/1 73/6/1 72/3/1
f 21/5/1 22/7/1 75/8/1 73/6/1
f 22/7/1 23/9/1 76/10/1 75/8/1
f 23/9/1 24/11/1 70/12/1 76/10/1
f 24/11/1 25/13/1 71/14/1 70/12/1
f 25/13/1 26/15/1 80/16/1 71/14/1
f 26/15/1 27/17/1 81/18/1 80/16/1
f 27/17/1 28/19/1 79/20/1 81/18/1
f 28/19/1 29/21/1 78/22/1 79/20/1
f 29/21/1 30/23/1 77/24/1 78/22/1
f 30/23/1 31/25/1 69/26/1 77/24/1
f 31/25/1 32/27/1 68/28/1 69/26/1
f 32/27/1 33/29/1 67/30/1 68/28/1
f 33/29/1 34/31/1 66/32/1 67/30/1
f 34/31/1 35/33/1 65/34/1 66/32/1
f 35/33/1 36/35/1 64/36/1 65/34/1
f 36/35/1 37/37/1 63/38/1 64/36/1
f 11/39/1 19/1/1 74/4/1 59/40/1
f 10/41/1 11/39/1 59/40/1 58/42/1
f 9/43/1 10/41/1 58/42/1 57/44/1
f 56/45/1 47/46/1 48/46/1 18/47/1 17/47/1 8/48/1 9/43/1 57/44/1
f 7/49/1 8/48/1 17/47/1 16/50/1
f 55/51/1 46/52/1 47/46/1 56/45/1
f 6/53/1 7/49/1 16/50/1 15/54/1
f 54/55/1 45/56/1 46/52/1 55/51/1
f 5/57/1 6/53/1 15/54/1 14/58/1
f 53/59/1 44/60/1 45/56/1 54/55/1
f 4/61/1 5/57/1 14/58/1 13/62/1
f 52/63/1 43/64/1 44/60/1 53/59/1
f 3/65/1 4/61/1 13/62/1 12/66/1
f 51/67/1 42/68/1 43/64/1 52/63/1
f 2/69/1 3/65/1 12/66/1 82/70/1
f 38/71/1 39/72/1 40/73/1 41/74/1 60/75/1 61/76/1 62/77/1
f 37/37/1 38/71/1 62/77/1 63/38/1
f 1/78/1 2/69/1 82/70/1 83/79/1 50/80/1 49/81/1
f 83/79/1 42/68/1 51/67/1 50/80/1
f 102/1/2 157/4/2 155/3/2 103/2/2
f 103/2/2 155/3/2 156/6/2 104/5/2
f 104/5/2 156/6/2 158/8/2 105/7/2
f 105/7/2 158/8/2 159/10/2 106/9/2
f 106/9/2 159/10/2 153/12/2 107/11/2
f 107/11/2 153/12/2 154/14/2 108/13/2
f 108/13/2 154/14/2 163/16/2 109/15/2
f 109/15/2 163/16/2 164/18/2 110/17/2
f 110/17/2 164/18/2 162/20/2 111/19/2
f 111/19/2 162/20/2 161/22/2 112/21/2
f 112/21/2 161/22/2 160/24/2 113/23/2
f 113/23/2 160/24/2 152/26/2 114/25/2
f 114/25/2 152/26/2 151/28/2 115/27/2
f 115/27/2 151/28/2 150/30/2 116/29/2
f 116/29/2 150/30/2 149/32/2 117/31/2
f 117/31/2 149/32/2 148/34/2 118/33/2
f 118/33/2 148/34/2 147/36/2 119/35/2
f 119/35/2 147/36/2 146/38/2 120/37/2
f 94/39/2 142/40/2 157/4/2 102/1/2
f 93/41/2 141/42/2 142/40/2 94/39/2
f 92/43/2 140/44/2 141/42/2 93/41/2
f 139/45/2 140/44/2 92/43/2 91/48/2 100/47/2 101/47/2 131/46/2 130/46/2
f 90/49/2 99/50/2 100/47/2 91/48/2
f 138/51/2 139/45/2 130/46/2 129/52/2
f 89/53/2 98/54/2 99/50/2 90/49/2
f 137/55/2 138/51/2 129/52/2 128/56/2
f 88/57/2 97/58/2 98/54/2 89/53/2
f 136/59/2 137/55/2 128/56/2 127/60/2
f 87/61/2 96/62/2 97/58/2 88/57/2
f 135/63/2 136/59/2 127/60/2 126/64/2
f 86/65/2 95/66/2 96/62/2 87/61/2
f 134/67/2 135/63/2 126/64/2 125/68/2
f 85/69/2 165/70/2 95/66/2 86/65/2
f 121/71/2 145/77/2 144/76/2 143/75/2 124/74/2 123/73/2 122/72/2
f 120/37/2 146/38/2 145/77/2 121/71/2
f 84/78/2 132/81/2 133/80/2 166/79/2 165/70/2 85/69/2
f 166/79/2 133/80/2 134/67/2 125/68/2
f 20/2/3 19/1/3 102/1/3 103/2/3
f 74/4/4 72/3/4 155/3/4 157/4/4
f 21/5/5 20/2/5 103/2/5 104/5/5
f 72/3/6 73/6/6 156/6/6 155/3/6
f 22/7/7 21/5/7 104/5/7 105/7/7
f 73/6/8 75/8/8 158/8/8 156/6/8
f 23/9/9 22/7/9 105/7/9 106/9/9
f 75/8/10 76/10/10 159/10/10 158/8/10
f 24/11/11 23/9/11 106/9/11 107/11/11
f 76/10/12 70/12/12 153/12/12 159/10/12
f 25/13/13 24/11/13 107/11/13 108/13/13
f 70/12/14 71/14/14 154/14/14 153/12/14
f 26/15/15 25/13/15 108/13/15 109/15/15
f 71/14/16 80/16/16 163/16/16 154/14/16
f 27/17/17 26/15/17 109/15/17 110/17/17
f 80/16/18 81/18/18 164/18/18 163/16/18
f 28/19/19 27/17/19 110/17/19 111/19/19
f 81/18/20 79/20/20 162/20/20 164/18/20
f 29/21/21 28/19/21 111/19/21 112/21/21
f 79/20/22 78/22/22 161/22/22 162/20/22
f 30/23/23 29/21/23 112/21/23 113/23/23
f 78/22/24 77/24/24 160/24/24 161/22/24
f 31/25/25 30/23/25 113/23/25 114/25/25
f 77/24/26 69/26/26 152/26/26 160/24/26
f 32/27/27 31/25/27 114/25/27 115/27/27
f 69/26/28 68/28/28 151/28/28 152/26/28
f 33/29/29 32/27/29 115/27/29 116/29/29
f 68/28/30 67/30/30 150/30/30 151/28/30
f 34/31/31 33/29/31 116/29/31 117/31/31
f 67/30/32 66/32/32 149/32/32 150/30/32
f 35/33/33 34/31/33 117/31/33 118/33/33
f 66/32/34 65/34/34 148/34/34 149/32/34
f 36/35/35 35/33/35 118/33/35 119/35/35
f 65/34/36 64/36/36 147/36/36 148/34/36
f 37/37/37 36/35/37 119/35/37 120/37/37
f 64/36/38 63/38/38 146/38/38 147/36/38
f 19/1/39 11/39/39 94/39/39 102/1/39
f 59/40/40 74/4/40 157/4/40 142/40/40
f 11/39/41 10/41/41 93/41/41 94/39/41
f 58/42/42 59/40/42 142/40/42 141/42/42
f 10/41/43 9/43/43 92/43/43 93/41/43
f 57/44/44 58/42/44 141/42/44 140/44/44
f 56/45/45 57/44/45 140/44/45 139/45/45
f 48/46/46 47/46/46 130/46/46 131/46/46
f 18/47/47 48/46/47 131/46/47 101/47/47
f 17/47/48 18/47/48 101/47/48 100/47/48
f 9/43/49 8/48/49 91/48/49 92/43/49
f 8/48/50 7/49/50 90/49/50 91/48/50
f 16/50/48 17/47/48 100/47/48 99/50/48
f 55/51/51 56/45/51 139/45/51 138/51/51
f 47/46/46 46/52/46 129/52/46 130/46/46
f 7/49/52 6/53/52 89/53/52 90/49/52
f 15/54/48 16/50/48 99/50/48 98/54/48
f 54/55/53 55/51/53 138/51/53 137/55/53
f 46/52/46 45/56/46 128/56/46 129/52/46
f 6/53/54 5/57/54 88/57/54 89/53/54
f 14/58/48 15/54/48 98/54/48 97/58/48
f 53/59/55 54/55/55 137/55/55 136/59/55
f 45/56/46 44/60/46 127/60/46 128/56/46
f 5/57/56 4/61/56 87/61/56 88/57/56
f 13/62/48 14/58/48 97/58/48 96/62/48
f 52/63/57 53/59/57 136/59/57 135/63/57
f 44/60/46 43/64/46 126/64/46 127/60/46
f 4/61/58 3/65/58 86/65/58 87/61/58
f 12/66/48 13/62/48 96/62/48 95/66/48
f 51/67/59 52/63/59 135/63/59 134/67/59
f 43/64/46 42/68/46 125/68/46 126/64/46
f 3/65/60 2/69/60 85/69/60 86/65/60
f 50/80/61 51/67/61 134/67/61 133/80/61
f 39/72/62 38/71/62 121/71/62 122/72/62
f 40/73/63 39/72/63 122/72/63 123/73/63
f 41/74/64 40/73/64 123/73/64 124/74/64
f 60/75/65 41/74/65 124/74/65 143/75/65
f 61/76/66 60/75/66 143/75/66 144/76/66
f 62/77/67 61/76/67 144/76/67 145/77/67
f 38/71/68 37/37/68 120/37/68 121/71/68
f 63/38/69 62/77/69 145/77/69 146/38/69
f 1/78/47 49/81/47 132/81/47 84/78/47
f 2/69/60 1/78/60 84/78/60 85/69/60
f 49/81/61 50/80/61 133/80/61 132/81/61
f 83/79/70 82/70/70 165/70/70 166/79/70
f 82/70/48 12/66/48 95/66/48 165/70/48
f 42/68/46 83/79/46 166/79/46 125/68/46
