# Blender 5.0.1
# www.blender.org
mtllib greenhouse_back.mtl
o back
v -9.002001 0.000007 -15.199987
v -8.991160 0.441294 -15.199987
v -8.958663 0.879897 -15.199987
v -8.904589 1.313186 -15.199987
v -8.829068 1.738600 -15.199987
v -8.732281 2.153711 -15.199987
v -8.614464 2.556237 -15.199987
v -8.475898 2.944090 -15.199987
v -8.316918 3.315405 -15.199987
v -8.137906 3.668559 -15.199987
v -7.939295 4.002192 -15.199987
v -7.721560 4.315226 -15.199987
v -7.485232 4.607434 -15.199987
v -7.230874 4.880648 -15.199987
v -6.959100 5.136857 -15.199987
v -6.670568 5.377762 -15.199987
v -6.365969 5.604743 -15.199987
v -6.046040 5.818870 -15.199987
v -5.711550 6.020908 -15.199987
v -5.363306 6.211329 -15.199987
v -5.002146 6.390338 -15.199987
v -4.628940 6.557897 -15.199987
v -4.244586 6.713771 -15.199987
v -3.850013 6.857544 -15.199987
v -3.446170 6.988684 -15.199987
v -3.034029 7.106563 -15.199987
v -2.614584 7.210515 -15.199987
v -2.188844 7.299870 -15.199987
v -1.757836 7.373981 -15.199987
v -1.322600 7.432280 -15.199987
v -0.884181 7.474285 -15.199987
v -0.443637 7.499636 -15.199987
v 0.880122 7.474285 -15.199987
v 1.318541 7.432280 -15.199987
v 1.753778 7.373981 -15.199987
v 2.184786 7.299870 -15.199987
v -0.002030 7.508111 -15.199987
v 0.439578 7.499636 -15.199987
v 8.997945 0.000006 -15.199987
v 8.987104 0.441294 -15.199987
v 8.954606 0.879896 -15.199987
v 8.900535 1.313185 -15.199987
v 8.825013 1.738600 -15.199987
v 8.610409 2.556237 -15.199987
v 8.728227 2.153711 -15.199987
v 8.471842 2.944091 -15.199987
v 8.312861 3.315407 -15.199987
v 8.133851 3.668560 -15.199987
v 7.935238 4.002193 -15.199987
v 4.998087 6.390339 -15.199987
v 7.717505 4.315226 -15.199987
v 7.481174 4.607435 -15.199987
v 7.226817 4.880649 -15.199987
v 6.955043 5.136858 -15.199987
v 6.361912 5.604745 -15.199987
v 6.041982 5.818872 -15.199987
v 5.707492 6.020909 -15.199987
v 5.359247 6.211330 -15.199987
v 6.666511 5.377763 -15.199987
v 3.029969 7.106564 -15.199987
v 2.610525 7.210515 -15.199987
v 3.442111 6.988685 -15.199987
v 3.845953 6.857546 -15.199987
v 4.240527 6.713772 -15.199987
v 4.624881 6.557899 -15.199987
v 8.992868 0.206660 -15.199987
v -8.996924 0.206660 -15.199987
v -9.002001 0.000010 -14.999988
v -8.991160 0.441294 -14.999988
v -8.958663 0.879897 -14.999988
v -8.904589 1.313186 -14.999988
v -8.829068 1.738600 -14.999988
v -8.732281 2.153711 -14.999988
v -8.614464 2.556237 -14.999988
v -8.475898 2.944090 -14.999988
v -8.316918 3.315405 -14.999988
v -8.137906 3.668559 -14.999988
v -7.939295 4.002192 -14.999988
v -7.721560 4.315226 -14.999988
v -7.485232 4.607434 -14.999988
v -7.230874 4.880648 -14.999988
v -6.959100 5.136858 -14.999988
v -6.670568 5.377762 -14.999988
v -6.365969 5.604744 -14.999988
v -6.046040 5.818870 -14.999988
v -5.711550 6.020908 -14.999988
v -5.363306 6.211330 -14.999988
v -5.002146 6.390337 -14.999988
v -4.628940 6.557899 -14.999988
v -4.244586 6.713771 -14.999988
v -3.850013 6.857543 -14.999988
v -3.446170 6.988684 -14.999988
v -3.034029 7.106564 -14.999988
v -2.614584 7.210517 -14.999988
v -2.188844 7.299869 -14.999988
v -1.757836 7.373980 -14.999988
v -1.322600 7.432278 -14.999988
v -0.884181 7.474289 -14.999988
v -0.443637 7.499640 -14.999988
v 0.880122 7.474290 -14.999988
v 1.318541 7.432279 -14.999988
v 1.753778 7.373980 -14.999988
v 2.184786 7.299870 -14.999988
v -0.002030 7.508116 -14.999988
v 0.439578 7.499640 -14.999988
v 8.997945 0.000009 -14.999988
v 8.987104 0.441294 -14.999988
v 8.954606 0.879896 -14.999988
v 8.900535 1.313185 -14.999988
v 8.825013 1.738600 -14.999988
v 8.610409 2.556237 -14.999988
v 8.728227 2.153711 -14.999988
v 8.471842 2.944091 -14.999988
v 8.312861 3.315407 -14.999988
v 8.133851 3.668560 -14.999988
v 7.935238 4.002193 -14.999988
v 4.998087 6.390338 -14.999988
v 7.717505 4.315226 -14.999988
v 7.481174 4.607435 -14.999988
v 7.226817 4.880649 -14.999988
v 6.955043 5.136858 -14.999988
v 6.361912 5.604746 -14.999988
v 6.041982 5.818871 -14.999988
v 5.707492 6.020909 -14.999988
v 5.359247 6.211331 -14.999988
v 6.666511 5.377763 -14.999988
v 3.029969 7.106564 -14.999988
v 2.610525 7.210518 -14.999988
v 3.442111 6.988685 -14.999988
v 3.845953 6.857545 -14.999988
v 4.240527 6.713772 -14.999988
v 4.624881 6.557900 -14.999988
v 8.992868 0.206661 -14.999988
v -8.996924 0.206661 -14.999988
vn -0.0000 -0.0000 -1.0000
vn -0.0000 -0.0000 1.0000
vn -0.9846 0.1748 -0.0000
vn 0.2750 0.9614 -0.0000
vn 0.2406 0.9706 -0.0000
vn -0.1328 0.9911 -0.0000
vn -0.2750 0.9614 -0.0000
vn -0.8920 0.4521 -0.0000
vn 0.9846 0.1748 -0.0000
vn 0.9597 0.2809 -0.0000
vn 0.9417 0.3364 -0.0000
vn 0.8593 0.5115 -0.0000
vn 0.7775 0.6288 -0.0000
vn 0.5975 0.8018 -0.0000
vn 0.5562 0.8310 -0.0000
vn 0.0192 0.9998 -0.0000
vn -0.0954 0.9954 -0.0000
vn -0.5975 0.8019 -0.0000
vn -0.7775 0.6288 -0.0000
vn -0.8593 0.5115 -0.0000
vn 0.8209 0.5710 -0.0000
vn 0.5170 0.8560 -0.0000
vn -0.0575 0.9983 -0.0000
vn -0.2406 0.9706 -0.0000
vn -0.3758 0.9267 -0.0000
vn -0.5562 0.8310 -0.0000
vn -0.7319 0.6814 -0.0000
vn -0.9739 0.2271 -0.0000
vn -0.9997 0.0246 -0.0000
vn -0.0000 -1.0000 -0.0000
vn 0.9739 0.2271 -0.0000
vn 0.7319 0.6814 -0.0000
vn 0.3089 0.9511 -0.0000
vn -0.9597 0.2809 -0.0000
vn 0.9997 0.0246 -0.0000
vn 0.4798 0.8774 -0.0000
vn 0.0954 0.9954 -0.0000
vn 0.0574 0.9983 -0.0000
vn -0.2054 0.9787 -0.0000
vn -0.4798 0.8774 -0.0000
vn -0.5170 0.8560 -0.0000
vn -0.6860 0.7276 -0.0000
vn -0.8209 0.5710 -0.0000
vn -0.9417 0.3364 -0.0000
vn -0.9973 0.0739 -0.0000
vn 0.9973 0.0739 -0.0000
vn 0.9193 0.3936 -0.0000
vn 0.6860 0.7276 -0.0000
vn 0.1328 0.9911 -0.0000
vn -0.3424 0.9396 -0.0000
vn -0.4441 0.8960 -0.0000
vn 0.6409 0.7676 -0.0000
vn 0.4441 0.8960 -0.0000
vn 0.4096 0.9123 -0.0000
vn 0.3424 0.9396 -0.0000
vn 0.1695 0.9855 -0.0000
vn -0.0192 0.9998 -0.0000
vn -0.1695 0.9855 -0.0000
vn -0.3089 0.9511 -0.0000
vn -0.9193 0.3936 -0.0000
vn -0.9923 0.1238 -0.0000
vn 0.9923 0.1238 -0.0000
vn 0.8920 0.4521 -0.0000
vn 0.3758 0.9267 -0.0000
vn 0.2054 0.9787 -0.0000
vn -0.4096 0.9123 -0.0000
vn -0.6409 0.7676 -0.0000
vt 0.566458 0.817256
vt 0.561879 0.818477
vt 0.561879 0.905062
vt 0.566458 0.906283
vt 0.557605 0.819802
vt 0.557605 0.903736
vt 0.553609 0.821229
vt 0.553609 0.902310
vt 0.549861 0.822753
vt 0.549861 0.900786
vt 0.546337 0.824371
vt 0.546337 0.899167
vt 0.543017 0.826079
vt 0.543017 0.897459
vt 0.539885 0.827874
vt 0.539885 0.895665
vt 0.536929 0.829749
vt 0.536929 0.893789
vt 0.534144 0.831702
vt 0.534144 0.891836
vt 0.531526 0.833728
vt 0.531526 0.889811
vt 0.529075 0.835821
vt 0.529075 0.887718
vt 0.526795 0.837977
vt 0.526795 0.885562
vt 0.524692 0.840189
vt 0.524692 0.883349
vt 0.522773 0.842454
vt 0.522773 0.881085
vt 0.521049 0.844765
vt 0.521049 0.878773
vt 0.519529 0.847118
vt 0.519529 0.876421
vt 0.518221 0.849505
vt 0.518222 0.874033
vt 0.517137 0.851922
vt 0.517137 0.871616
vt 0.571338 0.907397
vt 0.571338 0.816142
vt 0.576504 0.908401
vt 0.576504 0.815138
vt 0.581936 0.909292
vt 0.581936 0.814247
vt 0.587609 0.910069
vt 0.587609 0.813469
vt 0.593497 0.910730
vt 0.593497 0.812809
vt 0.599569 0.911273
vt 0.599569 0.812266
vt 0.605792 0.911696
vt 0.605792 0.811843
vt 0.612130 0.912000
vt 0.612129 0.811539
vt 0.618545 0.912182
vt 0.618545 0.811357
vt 0.621977 0.912214
vt 0.621977 0.811325
vt 0.516285 0.854363
vt 0.515670 0.856822
vt 0.515299 0.859293
vt 0.515175 0.861769
vt 0.515299 0.864246
vt 0.515670 0.866716
vt 0.516285 0.869175
vt 0.625000 0.912242
vt 0.625000 0.811296
s 0
usemtl glass
f 11/1/1 12/2/1 51/3/1 49/4/1
f 12/2/1 13/5/1 52/6/1 51/3/1
f 13/5/1 14/7/1 53/8/1 52/6/1
f 14/7/1 15/9/1 54/10/1 53/8/1
f 15/9/1 16/11/1 59/12/1 54/10/1
f 16/11/1 17/13/1 55/14/1 59/12/1
f 17/13/1 18/15/1 56/16/1 55/14/1
f 18/15/1 19/17/1 57/18/1 56/16/1
f 19/17/1 20/19/1 58/20/1 57/18/1
f 20/19/1 21/21/1 50/22/1 58/20/1
f 21/21/1 22/23/1 65/24/1 50/22/1
f 22/23/1 23/25/1 64/26/1 65/24/1
f 23/25/1 24/27/1 63/28/1 64/26/1
f 24/27/1 25/29/1 62/30/1 63/28/1
f 25/29/1 26/31/1 60/32/1 62/30/1
f 26/31/1 27/33/1 61/34/1 60/32/1
f 27/33/1 28/35/1 36/36/1 61/34/1
f 28/35/1 29/37/1 35/38/1 36/36/1
f 49/4/1 48/39/1 10/40/1 11/1/1
f 48/39/1 47/41/1 9/42/1 10/40/1
f 47/41/1 46/43/1 8/44/1 9/42/1
f 46/43/1 44/45/1 7/46/1 8/44/1
f 44/45/1 45/47/1 6/48/1 7/46/1
f 45/47/1 43/49/1 5/50/1 6/48/1
f 43/49/1 42/51/1 4/52/1 5/50/1
f 42/51/1 41/53/1 3/54/1 4/52/1
f 41/53/1 40/55/1 2/56/1 3/54/1
f 40/55/1 66/57/1 67/58/1 2/56/1
f 30/59/1 31/60/1 32/61/1 37/62/1 38/63/1 33/64/1 34/65/1
f 29/37/1 30/59/1 34/65/1 35/38/1
f 67/58/1 66/57/1 39/66/1 1/67/1
f 78/1/2 116/4/2 118/3/2 79/2/2
f 79/2/2 118/3/2 119/6/2 80/5/2
f 80/5/2 119/6/2 120/8/2 81/7/2
f 81/7/2 120/8/2 121/10/2 82/9/2
f 82/9/2 121/10/2 126/12/2 83/11/2
f 83/11/2 126/12/2 122/14/2 84/13/2
f 84/13/2 122/14/2 123/16/2 85/15/2
f 85/15/2 123/16/2 124/18/2 86/17/2
f 86/17/2 124/18/2 125/20/2 87/19/2
f 87/19/2 125/20/2 117/22/2 88/21/2
f 88/21/2 117/22/2 132/24/2 89/23/2
f 89/23/2 132/24/2 131/26/2 90/25/2
f 90/25/2 131/26/2 130/28/2 91/27/2
f 91/27/2 130/28/2 129/30/2 92/29/2
f 92/29/2 129/30/2 127/32/2 93/31/2
f 93/31/2 127/32/2 128/34/2 94/33/2
f 94/33/2 128/34/2 103/36/2 95/35/2
f 95/35/2 103/36/2 102/38/2 96/37/2
f 116/4/2 78/1/2 77/40/2 115/39/2
f 115/39/2 77/40/2 76/42/2 114/41/2
f 114/41/2 76/42/2 75/44/2 113/43/2
f 113/43/2 75/44/2 74/46/2 111/45/2
f 111/45/2 74/46/2 73/48/2 112/47/2
f 112/47/2 73/48/2 72/50/2 110/49/2
f 110/49/2 72/50/2 71/52/2 109/51/2
f 109/51/2 71/52/2 70/54/2 108/53/2
f 108/53/2 70/54/2 69/56/2 107/55/2
f 107/55/2 69/56/2 134/58/2 133/57/2
f 97/59/2 101/65/2 100/64/2 105/63/2 104/62/2 99/61/2 98/60/2
f 96/37/2 102/38/2 101/65/2 97/59/2
f 134/58/2 68/67/2 106/66/2 133/57/2
f 5/50/3 4/52/3 71/52/3 72/50/3
f 62/30/4 60/32/4 127/32/4 129/30/4
f 60/32/5 61/34/5 128/34/5 127/32/5
f 30/59/6 29/37/6 96/37/6 97/59/6
f 26/31/7 25/29/7 92/29/7 93/31/7
f 10/40/8 9/42/8 76/42/8 77/40/8
f 42/51/9 43/49/9 110/49/9 109/51/9
f 45/47/10 44/45/10 111/45/10 112/47/10
f 44/45/11 46/43/11 113/43/11 111/45/11
f 48/39/12 49/4/12 116/4/12 115/39/12
f 51/3/13 52/6/13 119/6/13 118/3/13
f 59/12/14 55/14/14 122/14/14 126/12/14
f 55/14/15 56/16/15 123/16/15 122/14/15
f 38/63/16 37/62/16 104/62/16 105/63/16
f 31/60/17 30/59/17 97/59/17 98/60/17
f 17/13/18 16/11/18 83/11/18 84/13/18
f 13/5/19 12/2/19 79/2/19 80/5/19
f 11/1/20 10/40/20 77/40/20 78/1/20
f 49/4/21 51/3/21 118/3/21 116/4/21
f 56/16/22 57/18/22 124/18/22 123/16/22
f 32/61/23 31/60/23 98/60/23 99/61/23
f 27/33/24 26/31/24 93/31/24 94/33/24
f 23/25/25 22/23/25 89/23/25 90/25/25
f 18/15/26 17/13/26 84/13/26 85/15/26
f 14/7/27 13/5/27 80/5/27 81/7/27
f 6/48/28 5/50/28 72/50/28 73/48/28
f 2/56/29 67/58/29 134/58/29 69/56/29
f 1/67/30 39/66/30 106/66/30 68/67/30
f 43/49/31 45/47/31 112/47/31 110/49/31
f 52/6/32 53/8/32 120/8/32 119/6/32
f 63/28/33 62/30/33 129/30/33 130/28/33
f 7/46/34 6/48/34 73/48/34 74/46/34
f 66/57/35 40/55/35 107/55/35 133/57/35
f 57/18/36 58/20/36 125/20/36 124/18/36
f 34/65/37 33/64/37 100/64/37 101/65/37
f 33/64/38 38/63/38 105/63/38 100/64/38
f 28/35/39 27/33/39 94/33/39 95/35/39
f 20/19/40 19/17/40 86/17/40 87/19/40
f 19/17/41 18/15/41 85/15/41 86/17/41
f 15/9/42 14/7/42 81/7/42 82/9/42
f 12/2/43 11/1/43 78/1/43 79/2/43
f 8/44/44 7/46/44 74/46/44 75/44/44
f 3/54/45 2/56/45 69/56/45 70/54/45
f 40/55/46 41/53/46 108/53/46 107/55/46
f 46/43/47 47/41/47 114/41/47 113/43/47
f 53/8/48 54/10/48 121/10/48 120/8/48
f 35/38/49 34/65/49 101/65/49 102/38/49
f 24/27/50 23/25/50 90/25/50 91/27/50
f 21/21/51 20/19/51 87/19/51 88/21/51
f 54/10/52 59/12/52 126/12/52 121/10/52
f 58/20/53 50/22/53 117/22/53 125/20/53
f 50/22/54 65/24/54 132/24/54 117/22/54
f 64/26/55 63/28/55 130/28/55 131/26/55
f 36/36/56 35/38/56 102/38/56 103/36/56
f 37/62/57 32/61/57 99/61/57 104/62/57
f 29/37/58 28/35/58 95/35/58 96/37/58
f 25/29/59 24/27/59 91/27/59 92/29/59
f 9/42/60 8/44/60 75/44/60 76/42/60
f 4/52/61 3/54/61 70/54/61 71/52/61
f 41/53/62 42/51/62 109/51/62 108/53/62
f 47/41/63 48/39/63 115/39/63 114/41/63
f 65/24/64 64/26/64 131/26/64 132/24/64
f 61/34/65 36/36/65 103/36/65 128/34/65
f 22/23/66 21/21/66 88/21/66 89/23/66
f 16/11/67 15/9/67 82/9/67 83/11/67
f 39/66/35 66/57/35 133/57/35 106/66/35
f 67/58/29 1/67/29 68/67/29 134/58/29
