# Blender 5.0.1
# www.blender.org
mtllib greenhouse_pathway.mtl
o pathway-1
v -9.000000 0.110000 15.000000
v -7.000000 0.110000 15.000000
v -9.000000 0.110000 13.000000
v -7.000000 0.110000 13.000000
v -9.000000 0.110000 13.000000
v -7.000000 0.110000 13.000000
v -9.000000 0.110000 11.000000
v -7.000000 0.110000 11.000000
v -9.000000 0.110000 11.000000
v -7.000000 0.110000 11.000000
v -9.000000 0.110000 9.000000
v -7.000000 0.110000 9.000000
v -9.000000 0.110000 9.000000
v -7.000000 0.110000 9.000000
v -9.000000 0.110000 7.000000
v -7.000000 0.110000 7.000000
v -9.000000 0.110000 7.000000
v -7.000000 0.110000 7.000000
v -9.000000 0.110000 5.000000
v -7.000000 0.110000 5.000000
v -9.000000 0.110000 5.000000
v -7.000000 0.110000 5.000000
v -9.000000 0.110000 3.000000
v -7.000000 0.110000 3.000000
v -9.000000 0.110000 3.000000
v -7.000000 0.110000 3.000000
v -9.000000 0.110000 1.000000
v -7.000000 0.110000 1.000000
v -9.000000 0.110000 1.000000
v -7.000000 0.110000 1.000000
v -9.000000 0.110000 -1.000000
v -7.000000 0.110000 -1.000000
v -9.000000 0.110000 -1.000000
v -7.000000 0.110000 -1.000000
v -9.000000 0.110000 -3.000000
v -7.000000 0.110000 -3.000000
v -9.000000 0.110000 -3.000000
v -7.000000 0.110000 -3.000000
v -9.000000 0.110000 -5.000000
v -7.000000 0.110000 -5.000000
v -9.000000 0.110000 -5.000000
v -7.000000 0.110000 -5.000000
v -9.000000 0.110000 -7.000000
v -7.000000 0.110000 -7.000000
v -9.000000 0.110000 -7.000000
v -7.000000 0.110000 -7.000000
v -9.000000 0.110000 -9.000000
v -7.000000 0.110000 -9.000000
v -9.000000 0.110000 -9.000000
v -7.000000 0.110000 -9.000000
v -9.000000 0.110000 -11.000000
v -7.000000 0.110000 -11.000000
v -9.000000 0.110000 -11.000000
v -7.000000 0.110000 -11.000000
v -9.000000 0.110000 -13.000000
v -7.000000 0.110000 -13.000000
v -9.000000 0.110000 -13.000000
v -7.000000 0.110000 -13.000000
v -9.000000 0.110000 -15.000000
v -7.000000 0.110000 -15.000000
vn -0.0000 1.0000 -0.0000
vt 0.000000 0.000000
vt 1.000000 0.000000
vt 1.000000 1.000000
vt 0.000000 1.000000
s 0
usemtl pathway
f 1/1/1 2/2/1 4/3/1 3/4/1
f 5/1/1 6/2/1 8/3/1 7/4/1
f 9/1/1 10/2/1 12/3/1 11/4/1
f 13/1/1 14/2/1 16/3/1 15/4/1
f 17/1/1 18/2/1 20/3/1 19/4/1
f 21/1/1 22/2/1 24/3/1 23/4/1
f 25/1/1 26/2/1 28/3/1 27/4/1
f 29/1/1 30/2/1 32/3/1 31/4/1
f 33/1/1 34/2/1 36/3/1 35/4/1
f 37/1/1 38/2/1 40/3/1 39/4/1
f 41/1/1 42/2/1 44/3/1 43/4/1
f 45/1/1 46/2/1 48/3/1 47/4/1
f 49/1/1 50/2/1 52/3/1 51/4/1
f 53/1/1 54/2/1 56/3/1 55/4/1
f 57/1/1 58/2/1 60/3/1 59/4/1
o pathway-2
v -5.000000 0.110000 15.000000
v -3.000000 0.110000 15.000000
v -5.000000 0.110000 13.000000
v -3.000000 0.110000 13.000000
v -5.000000 0.110000 13.000000
v -3.000000 0.110000 13.000000
v -5.000000 0.110000 11.000000
v -3.000000 0.110000 11.000000
v -5.000000 0.110000 11.000000
v -3.000000 0.110000 11.000000
v -5.000000 0.110000 9.000000
v -3.000000 0.110000 9.000000
v -5.000000 0.110000 9.000000
v -3.000000 0.110000 9.000000
v -5.000000 0.110000 7.000000
v -3.000000 0.110000 7.000000
v -5.000000 0.110000 7.000000
v -3.000000 0.110000 7.000000
v -5.000000 0.110000 5.000000
v -3.000000 0.110000 5.000000
v -5.000000 0.110000 5.000000
v -3.000000 0.110000 5.000000
v -5.000000 0.110000 3.000000
v -3.000000 0.110000 3.000000
v -5.000000 0.110000 3.000000
v -3.000000 0.110000 3.000000
v -5.000000 0.110000 1.000000
v -3.000000 0.110000 1.000000
v -5.000000 0.110000 1.000000
v -3.000000 0.110000 1.000000
v -5.000000 0.110000 -1.000000
v -3.000000 0.110000 -1.000000
v -5.000000 0.110000 -1.000000
v -3.000000 0.110000 -1.000000
v -5.000000 0.110000 -3.000000
v -3.000000 0.110000 -3.000000
v -5.000000 0.110000 -3.000000
v -3.000000 0.110000 -3.000000
v -5.000000 0.110000 -5.000000
v -3.000000 0.110000 -5.000000
v -5.000000 0.110000 -5.000000
v -3.000000 0.110000 -5.000000
v -5.000000 0.110000 -7.000000
v -3.000000 0.110000 -7.000000
v -5.000000 0.110000 -7.000000
v -3.000000 0.110000 -7.000000
v -5.000000 0.110000 -9.000000
v -3.000000 0.110000 -9.000000
v -5.000000 0.110000 -9.000000
v -3.000000 0.110000 -9.000000
v -5.000000 0.110000 -11.000000
v -3.000000 0.110000 -11.000000
v -5.000000 0.110000 -11.000000
v -3.000000 0.110000 -11.000000
v -5.000000 0.110000 -13.000000
v -3.000000 0.110000 -13.000000
v -5.000000 0.110000 -13.000000
v -3.000000 0.110000 -13.000000
v -5.000000 0.110000 -15.000000
v -3.000000 0.110000 -15.000000
vn -0.0000 1.0000 -0.0000
vt 0.000000 0.000000
vt 1.000000 0.000000
vt 1.000000 1.000000
vt 0.000000 1.000000
s 0
usemtl pathway
f 61/5/2 62/6/2 64/7/2 63/8/2
f 65/5/2 66/6/2 68/7/2 67/8/2
f 69/5/2 70/6/2 72/7/2 71/8/2
f 73/5/2 74/6/2 76/7/2 75/8/2
f 77/5/2 78/6/2 80/7/2 79/8/2
f 81/5/2 82/6/2 84/7/2 83/8/2
f 85/5/2 86/6/2 88/7/2 87/8/2
f 89/5/2 90/6/2 92/7/2 91/8/2
f 93/5/2 94/6/2 96/7/2 95/8/2
f 97/5/2 98/6/2 100/7/2 99/8/2
f 101/5/2 102/6/2 104/7/2 103/8/2
f 105/5/2 106/6/2 108/7/2 107/8/2
f 109/5/2 110/6/2 112/7/2 111/8/2
f 113/5/2 114/6/2 116/7/2 115/8/2
f 117/5/2 118/6/2 120/7/2 119/8/2
o pathway-3
v -1.000000 0.110000 15.000000
v 1.000000 0.110000 15.000000
v -1.000000 0.110000 13.000000
v 1.000000 0.110000 13.000000
v -1.000000 0.110000 13.000000
v 1.000000 0.110000 13.000000
v -1.000000 0.110000 11.000000
v 1.000000 0.110000 11.000000
v -1.000000 0.110000 11.000000
v 1.000000 0.110000 11.000000
v -1.000000 0.110000 9.000000
v 1.000000 0.110000 9.000000
v -1.000000 0.110000 9.000000
v 1.000000 0.110000 9.000000
v -1.000000 0.110000 7.000000
v 1.000000 0.110000 7.000000
v -1.000000 0.110000 7.000000
v 1.000000 0.110000 7.000000
v -1.000000 0.110000 5.000000
v 1.000000 0.110000 5.000000
v -1.000000 0.110000 5.000000
v 1.000000 0.110000 5.000000
v -1.000000 0.110000 3.000000
v 1.000000 0.110000 3.000000
v -1.000000 0.110000 3.000000
v 1.000000 0.110000 3.000000
v -1.000000 0.110000 1.000000
v 1.000000 0.110000 1.000000
v -1.000000 0.110000 1.000000
v 1.000000 0.110000 1.000000
v -1.000000 0.110000 -1.000000
v 1.000000 0.110000 -1.000000
v -1.000000 0.110000 -1.000000
v 1.000000 0.110000 -1.000000
v -1.000000 0.110000 -3.000000
v 1.000000 0.110000 -3.000000
v -1.000000 0.110000 -3.000000
v 1.000000 0.110000 -3.000000
v -1.000000 0.110000 -5.000000
v 1.000000 0.110000 -5.000000
v -1.000000 0.110000 -5.000000
v 1.000000 0.110000 -5.000000
v -1.000000 0.110000 -7.000000
v 1.000000 0.110000 -7.000000
v -1.000000 0.110000 -7.000000
v 1.000000 0.110000 -7.000000
v -1.000000 0.110000 -9.000000
v 1.000000 0.110000 -9.000000
v -1.000000 0.110000 -9.000000
v 1.000000 0.110000 -9.000000
v -1.000000 0.110000 -11.000000
v 1.000000 0.110000 -11.000000
v -1.000000 0.110000 -11.000000
v 1.000000 0.110000 -11.000000
v -1.000000 0.110000 -13.000000
v 1.000000 0.110000 -13.000000
v -1.000000 0.110000 -13.000000
v 1.000000 0.110000 -13.000000
v -1.000000 0.110000 -15.000000
v 1.000000 0.110000 -15.000000
vn -0.0000 1.0000 -0.0000
vt 0.000000 0.000000
vt 1.000000 0.000000
vt 1.000000 1.000000
vt 0.000000 1.000000
s 0
usemtl pathway
f 121/9/3 122/10/3 124/11/3 123/12/3
f 125/9/3 126/10/3 128/11/3 127/12/3
f 129/9/3 130/10/3 132/11/3 131/12/3
f 133/9/3 134/10/3 136/11/3 135/12/3
f 137/9/3 138/10/3 140/11/3 139/12/3
f 141/9/3 142/10/3 144/11/3 143/12/3
f 145/9/3 146/10/3 148/11/3 147/12/3
f 149/9/3 150/10/3 152/11/3 151/12/3
f 153/9/3 154/10/3 156/11/3 155/12/3
f 157/9/3 158/10/3 160/11/3 159/12/3
f 161/9/3 162/10/3 164/11/3 163/12/3
f 165/9/3 166/10/3 168/11/3 167/12/3
f 169/9/3 170/10/3 172/11/3 171/12/3
f 173/9/3 174/10/3 176/11/3 175/12/3
f 177/9/3 178/10/3 180/11/3 179/12/3
o pathway-4
v 3.000000 0.110000 15.000000
v 5.000000 0.110000 15.000000
v 3.000000 0.110000 13.000000
v 5.000000 0.110000 13.000000
v 3.000000 0.110000 13.000000
v 5.000000 0.110000 13.000000
v 3.000000 0.110000 11.000000
v 5.000000 0.110000 11.000000
v 3.000000 0.110000 11.000000
v 5.000000 0.110000 11.000000
v 3.000000 0.110000 9.000000
v 5.000000 0.110000 9.000000
v 3.000000 0.110000 9.000000
v 5.000000 0.110000 9.000000
v 3.000000 0.110000 7.000000
v 5.000000 0.110000 7.000000
v 3.000000 0.110000 7.000000
v 5.000000 0.110000 7.000000
v 3.000000 0.110000 5.000000
v 5.000000 0.110000 5.000000
v 3.000000 0.110000 5.000000
v 5.000000 0.110000 5.000000
v 3.000000 0.110000 3.000000
v 5.000000 0.110000 3.000000
v 3.000000 0.110000 3.000000
v 5.000000 0.110000 3.000000
v 3.000000 0.110000 1.000000
v 5.000000 0.110000 1.000000
v 3.000000 0.110000 1.000000
v 5.000000 0.110000 1.000000
v 3.000000 0.110000 -1.000000
v 5.000000 0.110000 -1.000000
v 3.000000 0.110000 -1.000000
v 5.000000 0.110000 -1.000000
v 3.000000 0.110000 -3.000000
v 5.000000 0.110000 -3.000000
v 3.000000 0.110000 -3.000000
v 5.000000 0.110000 -3.000000
v 3.000000 0.110000 -5.000000
v 5.000000 0.110000 -5.000000
v 3.000000 0.110000 -5.000000
v 5.000000 0.110000 -5.000000
v 3.000000 0.110000 -7.000000
v 5.000000 0.110000 -7.000000
v 3.000000 0.110000 -7.000000
v 5.000000 0.110000 -7.000000
v 3.000000 0.110000 -9.000000
v 5.000000 0.110000 -9.000000
v 3.000000 0.110000 -9.000000
v 5.000000 0.110000 -9.000000
v 3.000000 0.110000 -11.000000
v 5.000000 0.110000 -11.000000
v 3.000000 0.110000 -11.000000
v 5.000000 0.110000 -11.000000
v 3.000000 0.110000 -13.000000
v 5.000000 0.110000 -13.000000
v 3.000000 0.110000 -13.000000
v 5.000000 0.110000 -13.000000
v 3.000000 0.110000 -15.000000
v 5.000000 0.110000 -15.000000
vn -0.0000 1.0000 -0.0000
vt 0.000000 0.000000
vt 1.000000 0.000000
vt 1.000000 1.000000
vt 0.000000 1.000000
s 0
usemtl pathway
f 181/13/4 182/14/4 184/15/4 183/16/4
f 185/13/4 186/14/4 188/15/4 187/16/4
f 189/13/4 190/14/4 192/15/4 191/16/4
f 193/13/4 194/14/4 196/15/4 195/16/4
f 197/13/4 198/14/4 200/15/4 199/16/4
f 201/13/4 202/14/4 204/15/4 203/16/4
f 205/13/4 206/14/4 208/15/4 207/16/4
f 209/13/4 210/14/4 212/15/4 211/16/4
f 213/13/4 214/14/4 216/15/4 215/16/4
f 217/13/4 218/14/4 220/15/4 219/16/4
f 221/13/4 222/14/4 224/15/4 223/16/4
f 225/13/4 226/14/4 228/15/4 227/16/4
f 229/13/4 230/14/4 232/15/4 231/16/4
f 233/13/4 234/14/4 236/15/4 235/16/4
f 237/13/4 238/14/4 240/15/4 239/16/4
o pathway-5
v 7.000000 0.110000 15.000000
v 9.000000 0.110000 15.000000
v 7.000000 0.110000 13.000000
v 9.000000 0.110000 13.000000
v 7.000000 0.110000 13.000000
v 9.000000 0.110000 13.000000
v 7.000000 0.110000 11.000000
v 9.000000 0.110000 11.000000
v 7.000000 0.110000 11.000000
v 9.000000 0.110000 11.000000
v 7.000000 0.110000 9.000000
v 9.000000 0.110000 9.000000
v 7.000000 0.110000 9.000000
v 9.000000 0.110000 9.000000
v 7.000000 0.110000 7.000000
v 9.000000 0.110000 7.000000
v 7.000000 0.110000 7.000000
v 9.000000 0.110000 7.000000
v 7.000000 0.110000 5.000000
v 9.000000 0.110000 5.000000
v 7.000000 0.110000 5.000000
v 9.000000 0.110000 5.000000
v 7.000000 0.110000 3.000000
v 9.000000 0.110000 3.000000
v 7.000000 0.110000 3.000000
v 9.000000 0.110000 3.000000
v 7.000000 0.110000 1.000000
v 9.000000 0.110000 1.000000
v 7.000000 0.110000 1.000000
v 9.000000 0.110000 1.000000
v 7.000000 0.110000 -1.000000
v 9.000000 0.110000 -1.000000
v 7.000000 0.110000 -1.000000
v 9.000000 0.110000 -1.000000
v 7.000000 0.110000 -3.000000
v 9.000000 0.110000 -3.000000
v 7.000000 0.110000 -3.000000
v 9.000000 0.110000 -3.000000
v 7.000000 0.110000 -5.000000
v 9.000000 0.110000 -5.000000
v 7.000000 0.110000 -5.000000
v 9.000000 0.110000 -5.000000
v 7.000000 0.110000 -7.000000
v 9.000000 0.110000 -7.000000
v 7.000000 0.110000 -7.000000
v 9.000000 0.110000 -7.000000
v 7.000000 0.110000 -9.000000
v 9.000000 0.110000 -9.000000
v 7.000000 0.110000 -9.000000
v 9.000000 0.110000 -9.000000
v 7.000000 0.110000 -11.000000
v 9.000000 0.110000 -11.000000
v 7.000000 0.110000 -11.000000
v 9.000000 0.110000 -11.000000
v 7.000000 0.110000 -13.000000
v 9.000000 0.110000 -13.000000
v 7.000000 0.110000 -13.000000
v 9.000000 0.110000 -13.000000
v 7.000000 0.110000 -15.000000
v 9.000000 0.110000 -15.000000
vn -0.0000 1.0000 -0.0000
vt 0.000000 0.000000
vt 1.000000 0.000000
vt 1.000000 1.000000
vt 0.000000 1.000000
s 0
usemtl pathway
f 241/17/5 242/18/5 244/19/5 243/20/5
f 245/17/5 246/18/5 248/19/5 247/20/5
f 249/17/5 250/18/5 252/19/5 251/20/5
f 253/17/5 254/18/5 256/19/5 255/20/5
f 257/17/5 258/18/5 260/19/5 259/20/5
f 261/17/5 262/18/5 264/19/5 263/20/5
f 265/17/5 266/18/5 268/19/5 267/20/5
f 269/17/5 270/18/5 272/19/5 271/20/5
f 273/17/5 274/18/5 276/19/5 275/20/5
f 277/17/5 278/18/5 280/19/5 279/20/5
f 281/17/5 282/18/5 284/19/5 283/20/5
f 285/17/5 286/18/5 288/19/5 287/20/5
f 289/17/5 290/18/5 292/19/5 291/20/5
f 293/17/5 294/18/5 296/19/5 295/20/5
f 297/17/5 298/18/5 300/19/5 299/20/5
o pathway-mid-5
v -7.000000 0.110000 -13.000000
v -5.000000 0.110000 -13.000000
v -7.000000 0.110000 -15.000000
v -5.000000 0.110000 -15.000000
vn -0.0000 1.0000 -0.0000
vt 0.000000 0.000000
vt 1.000000 0.000000
vt 1.000000 1.000000
vt 0.000000 1.000000
s 0
usemtl pathway
f 301/21/6 302/22/6 304/23/6 303/24/6
o pathway-mid-1
v -7.000000 0.110000 15.000000
v -5.000000 0.110000 15.000000
v -7.000000 0.110000 13.000000
v -5.000000 0.110000 13.000000
vn -0.0000 1.0000 -0.0000
vt 0.000000 0.000000
vt 1.000000 0.000000
vt 1.000000 1.000000
vt 0.000000 1.000000
s 0
usemtl pathway
f 305/25/7 306/26/7 308/27/7 307/28/7
o pathway-mid-2
v -3.000000 0.110000 15.000000
v -1.000000 0.110000 15.000000
v -3.000000 0.110000 13.000000
v -1.000000 0.110000 13.000000
vn -0.0000 1.0000 -0.0000
vt 0.000000 0.000000
vt 1.000000 0.000000
vt 1.000000 1.000000
vt 0.000000 1.000000
s 0
usemtl pathway
f 309/29/8 310/30/8 312/31/8 311/32/8
o pathway-mid-3
v 1.000000 0.110000 15.000000
v 3.000000 0.110000 15.000000
v 1.000000 0.110000 13.000000
v 3.000000 0.110000 13.000000
vn -0.0000 1.0000 -0.0000
vt 0.000000 0.000000
vt 1.000000 0.000000
vt 1.000000 1.000000
vt 0.000000 1.000000
s 0
usemtl pathway
f 313/33/9 314/34/9 316/35/9 315/36/9
o pathway-mid-4
v 5.000000 0.110000 15.000000
v 7.000000 0.110000 15.000000
v 5.000000 0.110000 13.000000
v 7.000000 0.110000 13.000000
vn -0.0000 1.0000 -0.0000
vt 0.000000 0.000000
vt 1.000000 0.000000
vt 1.000000 1.000000
vt 0.000000 1.000000
s 0
usemtl pathway
f 317/37/10 318/38/10 320/39/10 319/40/10
o pathway-mid-8
v 5.000000 0.110000 -13.000000
v 7.000000 0.110000 -13.000000
v 5.000000 0.110000 -15.000000
v 7.000000 0.110000 -15.000000
vn -0.0000 1.0000 -0.0000
vt 0.000000 0.000000
vt 1.000000 0.000000
vt 1.000000 1.000000
vt 0.000000 1.000000
s 0
usemtl pathway
f 321/41/11 322/42/11 324/43/11 323/44/11
o pathway-mid-7
v 1.000000 0.110000 -13.000000
v 3.000000 0.110000 -13.000000
v 1.000000 0.110000 -15.000000
v 3.000000 0.110000 -15.000000
vn -0.0000 1.0000 -0.0000
vt 0.000000 0.000000
vt 1.000000 0.000000
vt 1.000000 1.000000
vt 0.000000 1.000000
s 0
usemtl pathway
f 325/45/12 326/46/12 328/47/12 327/48/12
o pathway-mid-6
v -3.000000 0.110000 -13.000000
v -1.000000 0.110000 -13.000000
v -3.000000 0.110000 -15.000000
v -1.000000 0.110000 -15.000000
vn -0.0000 1.0000 -0.0000
vt 0.000000 0.000000
vt 1.000000 0.000000
vt 1.000000 1.000000
vt 0.000000 1.000000
s 0
usemtl pathway
f 329/49/13 330/50/13 332/51/13 331/52/13
