# Blender 5.0.1
# www.blender.org
mtllib greenhouse_grass.mtl
o grass-1
v -7.000000 0.110000 13.000000
v -5.000000 0.110000 13.000000
v -7.000000 0.110000 11.000000
v -5.000000 0.110000 11.000000
v -7.000000 0.110000 11.000000
v -5.000000 0.110000 11.000000
v -7.000000 0.110000 9.000000
v -5.000000 0.110000 9.000000
v -7.000000 0.110000 9.000000
v -5.000000 0.110000 9.000000
v -7.000000 0.110000 7.000000
v -5.000000 0.110000 7.000000
v -7.000000 0.110000 7.000000
v -5.000000 0.110000 7.000000
v -7.000000 0.110000 5.000000
v -5.000000 0.110000 5.000000
v -7.000000 0.110000 5.000000
v -5.000000 0.110000 5.000000
v -7.000000 0.110000 3.000000
v -5.000000 0.110000 3.000000
v -7.000000 0.110000 3.000000
v -5.000000 0.110000 3.000000
v -7.000000 0.110000 1.000000
v -5.000000 0.110000 1.000000
v -7.000000 0.110000 1.000000
v -5.000000 0.110000 1.000000
v -7.000000 0.110000 -1.000000
v -5.000000 0.110000 -1.000000
v -7.000000 0.110000 -1.000000
v -5.000000 0.110000 -1.000000
v -7.000000 0.110000 -3.000000
v -5.000000 0.110000 -3.000000
v -7.000000 0.110000 -3.000000
v -5.000000 0.110000 -3.000000
v -7.000000 0.110000 -5.000000
v -5.000000 0.110000 -5.000000
v -7.000000 0.110000 -5.000000
v -5.000000 0.110000 -5.000000
v -7.000000 0.110000 -7.000000
v -5.000000 0.110000 -7.000000
v -7.000000 0.110000 -7.000000
v -5.000000 0.110000 -7.000000
v -7.000000 0.110000 -9.000000
v -5.000000 0.110000 -9.000000
v -7.000000 0.110000 -9.000000
v -5.000000 0.110000 -9.000000
v -7.000000 0.110000 -11.000000
v -5.000000 0.110000 -11.000000
v -7.000000 0.110000 -11.000000
v -5.000000 0.110000 -11.000000
v -7.000000 0.110000 -13.000000
v -5.000000 0.110000 -13.000000
vn -0.0000 1.0000 -0.0000
vt 0.000000 0.000000
vt 1.000000 0.000000
vt 1.000000 1.000000
vt 0.000000 1.000000
s 0
usemtl grass
f 1/1/1 2/2/1 4/3/1 3/4/1
f 5/1/1 6/2/1 8/3/1 7/4/1
f 9/1/1 10/2/1 12/3/1 11/4/1
f 13/1/1 14/2/1 16/3/1 15/4/1
f 17/1/1 18/2/1 20/3/1 19/4/1
f 21/1/1 22/2/1 24/3/1 23/4/1
f 25/1/1 26/2/1 28/3/1 27/4/1
f 29/1/1 30/2/1 32/3/1 31/4/1
f 33/1/1 34/2/1 36/3/1 35/4/1
f 37/1/1 38/2/1 40/3/1 39/4/1
f 41/1/1 42/2/1 44/3/1 43/4/1
f 45/1/1 46/2/1 48/3/1 47/4/1
f 49/1/1 50/2/1 52/3/1 51/4/1
o grass-2
v -3.000000 0.110000 13.000000
v -1.000000 0.110000 13.000000
v -3.000000 0.110000 11.000000
v -1.000000 0.110000 11.000000
v -3.000000 0.110000 11.000000
v -1.000000 0.110000 11.000000
v -3.000000 0.110000 9.000000
v -1.000000 0.110000 9.000000
v -3.000000 0.110000 9.000000
v -1.000000 0.110000 9.000000
v -3.000000 0.110000 7.000000
v -1.000000 0.110000 7.000000
v -3.000000 0.110000 7.000000
v -1.000000 0.110000 7.000000
v -3.000000 0.110000 5.000000
v -1.000000 0.110000 5.000000
v -3.000000 0.110000 5.000000
v -1.000000 0.110000 5.000000
v -3.000000 0.110000 3.000000
v -1.000000 0.110000 3.000000
v -3.000000 0.110000 3.000000
v -1.000000 0.110000 3.000000
v -3.000000 0.110000 1.000000
v -1.000000 0.110000 1.000000
v -3.000000 0.110000 1.000000
v -1.000000 0.110000 1.000000
v -3.000000 0.110000 -1.000000
v -1.000000 0.110000 -1.000000
v -3.000000 0.110000 -1.000000
v -1.000000 0.110000 -1.000000
v -3.000000 0.110000 -3.000000
v -1.000000 0.110000 -3.000000
v -3.000000 0.110000 -3.000000
v -1.000000 0.110000 -3.000000
v -3.000000 0.110000 -5.000000
v -1.000000 0.110000 -5.000000
v -3.000000 0.110000 -5.000000
v -1.000000 0.110000 -5.000000
v -3.000000 0.110000 -7.000000
v -1.000000 0.110000 -7.000000
v -3.000000 0.110000 -7.000000
v -1.000000 0.110000 -7.000000
v -3.000000 0.110000 -9.000000
v -1.000000 0.110000 -9.000000
v -3.000000 0.110000 -9.000000
v -1.000000 0.110000 -9.000000
v -3.000000 0.110000 -11.000000
v -1.000000 0.110000 -11.000000
v -3.000000 0.110000 -11.000000
v -1.000000 0.110000 -11.000000
v -3.000000 0.110000 -13.000000
v -1.000000 0.110000 -13.000000
vn -0.0000 1.0000 -0.0000
vt 0.000000 0.000000
vt 1.000000 0.000000
vt 1.000000 1.000000
vt 0.000000 1.000000
s 0
usemtl grass
f 53/5/2 54/6/2 56/7/2 55/8/2
f 57/5/2 58/6/2 60/7/2 59/8/2
f 61/5/2 62/6/2 64/7/2 63/8/2
f 65/5/2 66/6/2 68/7/2 67/8/2
f 69/5/2 70/6/2 72/7/2 71/8/2
f 73/5/2 74/6/2 76/7/2 75/8/2
f 77/5/2 78/6/2 80/7/2 79/8/2
f 81/5/2 82/6/2 84/7/2 83/8/2
f 85/5/2 86/6/2 88/7/2 87/8/2
f 89/5/2 90/6/2 92/7/2 91/8/2
f 93/5/2 94/6/2 96/7/2 95/8/2
f 97/5/2 98/6/2 100/7/2 99/8/2
f 101/5/2 102/6/2 104/7/2 103/8/2
o grass-3
v 1.000000 0.110000 13.000000
v 3.000000 0.110000 13.000000
v 1.000000 0.110000 11.000000
v 3.000000 0.110000 11.000000
v 1.000000 0.110000 11.000000
v 3.000000 0.110000 11.000000
v 1.000000 0.110000 9.000000
v 3.000000 0.110000 9.000000
v 1.000000 0.110000 9.000000
v 3.000000 0.110000 9.000000
v 1.000000 0.110000 7.000000
v 3.000000 0.110000 7.000000
v 1.000000 0.110000 7.000000
v 3.000000 0.110000 7.000000
v 1.000000 0.110000 5.000000
v 3.000000 0.110000 5.000000
v 1.000000 0.110000 5.000000
v 3.000000 0.110000 5.000000
v 1.000000 0.110000 3.000000
v 3.000000 0.110000 3.000000
v 1.000000 0.110000 3.000000
v 3.000000 0.110000 3.000000
v 1.000000 0.110000 1.000000
v 3.000000 0.110000 1.000000
v 1.000000 0.110000 1.000000
v 3.000000 0.110000 1.000000
v 1.000000 0.110000 -1.000000
v 3.000000 0.110000 -1.000000
v 1.000000 0.110000 -1.000000
v 3.000000 0.110000 -1.000000
v 1.000000 0.110000 -3.000000
v 3.000000 0.110000 -3.000000
v 1.000000 0.110000 -3.000000
v 3.000000 0.110000 -3.000000
v 1.000000 0.110000 -5.000000
v 3.000000 0.110000 -5.000000
v 1.000000 0.110000 -5.000000
v 3.000000 0.110000 -5.000000
v 1.000000 0.110000 -7.000000
v 3.000000 0.110000 -7.000000
v 1.000000 0.110000 -7.000000
v 3.000000 0.110000 -7.000000
v 1.000000 0.110000 -9.000000
v 3.000000 0.110000 -9.000000
v 1.000000 0.110000 -9.000000
v 3.000000 0.110000 -9.000000
v 1.000000 0.110000 -11.000000
v 3.000000 0.110000 -11.000000
v 1.000000 0.110000 -11.000000
v 3.000000 0.110000 -11.000000
v 1.000000 0.110000 -13.000000
v 3.000000 0.110000 -13.000000
vn -0.0000 1.0000 -0.0000
vt 0.000000 0.000000
vt 1.000000 0.000000
vt 1.000000 1.000000
vt 0.000000 1.000000
s 0
usemtl grass
f 105/9/3 106/10/3 108/11/3 107/12/3
f 109/9/3 110/10/3 112/11/3 111/12/3
f 113/9/3 114/10/3 116/11/3 115/12/3
f 117/9/3 118/10/3 120/11/3 119/12/3
f 121/9/3 122/10/3 124/11/3 123/12/3
f 125/9/3 126/10/3 128/11/3 127/12/3
f 129/9/3 130/10/3 132/11/3 131/12/3
f 133/9/3 134/10/3 136/11/3 135/12/3
f 137/9/3 138/10/3 140/11/3 139/12/3
f 141/9/3 142/10/3 144/11/3 143/12/3
f 145/9/3 146/10/3 148/11/3 147/12/3
f 149/9/3 150/10/3 152/11/3 151/12/3
f 153/9/3 154/10/3 156/11/3 155/12/3
o grass-4
v 5.000000 0.110000 12.999999
v 7.000000 0.110000 12.999999
v 5.000000 0.110000 10.999999
v 7.000000 0.110000 10.999999
v 5.000000 0.110000 10.999999
v 7.000000 0.110000 10.999999
v 5.000000 0.110000 8.999999
v 7.000000 0.110000 8.999999
v 5.000000 0.110000 8.999999
v 7.000000 0.110000 8.999999
v 5.000000 0.110000 6.999999
v 7.000000 0.110000 6.999999
v 5.000000 0.110000 6.999999
v 7.000000 0.110000 6.999999
v 5.000000 0.110000 4.999999
v 7.000000 0.110000 4.999999
v 5.000000 0.110000 4.999999
v 7.000000 0.110000 4.999999
v 5.000000 0.110000 2.999999
v 7.000000 0.110000 2.999999
v 5.000000 0.110000 2.999999
v 7.000000 0.110000 2.999999
v 5.000000 0.110000 0.999999
v 7.000000 0.110000 0.999999
v 5.000000 0.110000 0.999999
v 7.000000 0.110000 0.999999
v 5.000000 0.110000 -1.000001
v 7.000000 0.110000 -1.000001
v 5.000000 0.110000 -1.000001
v 7.000000 0.110000 -1.000001
v 5.000000 0.110000 -3.000001
v 7.000000 0.110000 -3.000001
v 5.000000 0.110000 -3.000001
v 7.000000 0.110000 -3.000001
v 5.000000 0.110000 -5.000001
v 7.000000 0.110000 -5.000001
v 5.000000 0.110000 -5.000001
v 7.000000 0.110000 -5.000001
v 5.000000 0.110000 -7.000001
v 7.000000 0.110000 -7.000001
v 5.000000 0.110000 -7.000001
v 7.000000 0.110000 -7.000001
v 5.000000 0.110000 -9.000001
v 7.000000 0.110000 -9.000001
v 5.000000 0.110000 -9.000001
v 7.000000 0.110000 -9.000001
v 5.000000 0.110000 -11.000001
v 7.000000 0.110000 -11.000001
v 5.000000 0.110000 -11.000001
v 7.000000 0.110000 -11.000001
v 5.000000 0.110000 -13.000001
v 7.000000 0.110000 -13.000001
vn -0.0000 1.0000 -0.0000
vt 0.000000 0.000000
vt 1.000000 0.000000
vt 1.000000 1.000000
vt 0.000000 1.000000
s 0
usemtl grass
f 157/13/4 158/14/4 160/15/4 159/16/4
f 161/13/4 162/14/4 164/15/4 163/16/4
f 165/13/4 166/14/4 168/15/4 167/16/4
f 169/13/4 170/14/4 172/15/4 171/16/4
f 173/13/4 174/14/4 176/15/4 175/16/4
f 177/13/4 178/14/4 180/15/4 179/16/4
f 181/13/4 182/14/4 184/15/4 183/16/4
f 185/13/4 186/14/4 188/15/4 187/16/4
f 189/13/4 190/14/4 192/15/4 191/16/4
f 193/13/4 194/14/4 196/15/4 195/16/4
f 197/13/4 198/14/4 200/15/4 199/16/4
f 201/13/4 202/14/4 204/15/4 203/16/4
f 205/13/4 206/14/4 208/15/4 207/16/4
