# Blender 5.0.1
# www.blender.org
mtllib greenhouse_door.mtl
o door.001
v -1.002029 2.556235 15.000001
v -1.002029 0.201875 15.000001
v 0.997970 2.556235 15.000001
v 0.997970 0.201875 15.000001
v -1.002029 1.379055 15.000001
v -0.002029 0.201875 15.000001
v 0.997970 1.379055 15.000001
v -0.002029 2.556235 15.000001
v 0.947970 0.260734 15.000001
v 0.947970 2.497376 15.000001
v -0.952029 2.497376 15.000001
v -0.952029 0.260734 15.000001
v -0.002029 2.497376 15.000001
v -0.952029 1.379055 15.000001
v 0.947970 1.379055 15.000001
v -0.002029 0.260734 15.000001
v -1.002029 2.556235 15.200002
v -1.002029 0.201875 15.200002
v 0.997970 2.556235 15.200002
v 0.997970 0.201875 15.200002
v -1.002029 1.379055 15.200002
v -0.002029 0.201875 15.200002
v 0.997970 1.379055 15.200002
v -0.002029 2.556235 15.200002
v 0.947970 0.260734 15.200002
v 0.947970 2.497376 15.200002
v -0.952029 2.497376 15.200002
v -0.952029 0.260734 15.200002
v -0.002029 2.497376 15.200002
v -0.952029 1.379055 15.200002
v 0.947970 1.379055 15.200002
v -0.002029 0.260734 15.200002
v -0.002029 2.480896 15.000001
v 0.933970 2.480896 15.000001
v -0.938029 2.480896 15.000001
v -0.938029 1.379055 15.000001
v -0.938029 2.480896 15.000001
v -0.938029 0.277215 15.000001
v 0.933970 1.379055 15.000001
v 0.933970 0.277215 15.000001
v 0.933970 2.480896 15.000001
v -0.002029 0.277214 15.000001
v -0.938029 0.277214 15.000001
v 0.933970 0.277214 15.000001
v 0.933970 2.480896 15.200002
v -0.002029 2.480896 15.200002
v -0.938029 2.480896 15.200002
v -0.938029 2.480896 15.200002
v -0.938029 1.379055 15.200002
v -0.938029 0.277215 15.200002
v 0.933970 0.277215 15.200002
v 0.933970 1.379055 15.200002
v 0.933970 2.480896 15.200002
v -0.938029 0.277214 15.200002
v -0.002029 0.277214 15.200002
v 0.933970 0.277214 15.200002
vn -0.0000 -0.0000 -1.0000
vn -0.0000 -0.0000 1.0000
vn -1.0000 -0.0000 -0.0000
vn -0.0000 -1.0000 -0.0000
vn 1.0000 -0.0000 -0.0000
vn -0.0000 1.0000 -0.0000
vt 0.750000 0.506250
vt 0.750000 0.500000
vt 0.875000 0.500000
vt 0.868750 0.506250
vt 0.631250 0.625000
vt 0.625000 0.625000
vt 0.625000 0.500000
vt 0.631250 0.506250
vt 0.868750 0.625000
vt 0.875000 0.625000
vt 0.875000 0.750000
vt 0.868750 0.743750
vt 0.750000 0.743750
vt 0.750000 0.750000
vt 0.625000 0.750000
vt 0.631250 0.743750
vt 0.750000 0.742000
vt 0.633000 0.742000
vt 0.867000 0.742000
vt 0.867000 0.625000
vt 0.867000 0.742000
vt 0.867000 0.508000
vt 0.633000 0.508000
vt 0.633000 0.625000
vt 0.633000 0.742000
vt 0.750000 0.508000
vt 0.867000 0.508000
vt 0.633000 0.742000
vt 0.633000 0.508000
vt 0.472164 0.250000
vt 0.513831 0.250000
vt 0.513830 0.125000
vt 0.513830 0.000000
vt 0.472164 0.000000
vt 0.472164 0.125000
vt 0.472164 0.500000
vt 0.513830 0.500000
vt 0.513830 0.375000
vt 0.472164 0.375000
vt 0.472164 0.750000
vt 0.513831 0.750000
vt 0.513831 0.625000
vt 0.472164 0.625000
vt 0.513830 1.000000
vt 0.513830 0.875000
vt 0.472164 0.875000
vt 0.472164 1.000000
s 0
usemtl suppots
f 16/1/1 6/2/1 2/3/1 12/4/1
f 15/5/1 7/6/1 4/7/1 9/8/1
f 14/9/1 5/10/1 1/11/1 11/12/1
f 13/13/1 8/14/1 3/15/1 10/16/1
f 33/17/1 13/13/1 10/16/1 34/18/1
f 35/19/1 11/12/1 13/13/1 33/17/1
f 11/12/1 1/11/1 8/14/1 13/13/1
f 36/20/1 14/9/1 11/12/1 35/19/1 37/21/1
f 38/22/1 12/4/1 14/9/1 36/20/1
f 12/4/1 2/3/1 5/10/1 14/9/1
f 15/5/1 9/8/1 40/23/1 39/24/1
f 41/25/1 34/18/1 10/16/1 15/5/1 39/24/1
f 10/16/1 3/15/1 7/6/1 15/5/1
f 42/26/1 16/1/1 12/4/1 38/22/1 43/27/1
f 44/23/1 40/23/1 9/8/1 16/1/1 42/26/1
f 9/8/1 4/7/1 6/2/1 16/1/1
f 32/1/2 28/4/2 18/3/2 22/2/2
f 31/5/2 25/8/2 20/7/2 23/6/2
f 30/9/2 27/12/2 17/11/2 21/10/2
f 29/13/2 26/16/2 19/15/2 24/14/2
f 26/16/2 29/13/2 46/17/2 45/28/2
f 29/13/2 27/12/2 47/21/2 46/17/2
f 27/12/2 29/13/2 24/14/2 17/11/2
f 48/21/2 47/21/2 27/12/2 30/9/2 49/20/2
f 30/9/2 28/4/2 50/22/2 49/20/2
f 28/4/2 30/9/2 21/10/2 18/3/2
f 51/23/2 25/8/2 31/5/2 52/24/2
f 52/24/2 31/5/2 26/16/2 45/28/2 53/18/2
f 26/16/2 31/5/2 23/6/2 19/15/2
f 28/4/2 32/1/2 55/26/2 54/27/2 50/22/2
f 55/26/2 32/1/2 25/8/2 51/23/2 56/29/2
f 25/8/2 32/1/2 22/2/2 20/7/2
f 5/10/3 2/3/3 18/3/3 21/10/3
f 6/2/4 4/7/4 20/7/4 22/2/4
f 4/7/5 7/6/5 23/6/5 20/7/5
f 3/15/6 8/14/6 24/14/6 19/15/6
f 1/11/3 5/10/3 21/10/3 17/11/3
f 2/3/4 6/2/4 22/2/4 18/3/4
f 7/6/5 3/15/5 19/15/5 23/6/5
f 8/14/6 1/11/6 17/11/6 24/14/6
f 54/30/5 43/31/5 38/31/5 36/32/5 37/33/5 48/34/5 49/35/5 50/30/5
f 56/36/6 44/37/6 42/38/6 43/31/6 54/30/6 55/39/6
f 53/40/3 41/41/3 39/42/3 40/37/3 44/37/3 56/36/3 51/36/3 52/43/3
f 37/44/4 35/44/4 33/45/4 34/41/4 41/41/4 53/40/4 45/40/4 46/46/4 47/47/4 48/47/4
